<svg width="37" height="28" viewBox="0 0 37 28" fill="none" xmlns="http://www.w3.org/2000/svg">
<g filter="url(#filter0_d_105_50)">
<mask id="path-1-outside-1_105_50" maskUnits="userSpaceOnUse" x="3" y="-1" width="31" height="22" fill="black">
<rect fill="white" x="3" y="-1" width="31" height="22"/>
<path d="M27.3311 13.4668C30.6611 12.8115 32.6484 10.083 32.6484 8.28906C32.6484 7.84863 32.4551 7.53711 32.1006 7.53711C31.5527 7.53711 30.7578 8.21387 29.2539 8.21387C26.6543 8.22461 25.0215 6.64551 25.0215 4.27148C25.0215 2.81055 25.752 1.75781 25.752 1.16699C25.752 0.823242 25.5156 0.597656 25.0859 0.608398C23.1309 0.683594 20.5312 2.875 19.9297 5.78613C20.2949 6.12988 20.6387 6.58105 20.918 7.17188C24.4629 7.41895 27.1914 10.1152 27.3311 13.4668ZM8.58594 19.2139H20.499C23.5713 19.2139 25.9346 16.8721 25.9346 13.8428C25.9346 10.792 23.4961 8.51465 20.2305 8.50391C19.0059 6.17285 16.8037 4.67969 14.0215 4.67969C10.4551 4.67969 7.44727 7.41895 7.125 11.0068C5.25586 11.5439 4.06348 13.123 4.06348 15.0566C4.06348 17.5273 5.90039 19.2139 8.58594 19.2139Z"/>
</mask>
<path d="M27.3311 13.4668C30.6611 12.8115 32.6484 10.083 32.6484 8.28906C32.6484 7.84863 32.4551 7.53711 32.1006 7.53711C31.5527 7.53711 30.7578 8.21387 29.2539 8.21387C26.6543 8.22461 25.0215 6.64551 25.0215 4.27148C25.0215 2.81055 25.752 1.75781 25.752 1.16699C25.752 0.823242 25.5156 0.597656 25.0859 0.608398C23.1309 0.683594 20.5312 2.875 19.9297 5.78613C20.2949 6.12988 20.6387 6.58105 20.918 7.17188C24.4629 7.41895 27.1914 10.1152 27.3311 13.4668ZM8.58594 19.2139H20.499C23.5713 19.2139 25.9346 16.8721 25.9346 13.8428C25.9346 10.792 23.4961 8.51465 20.2305 8.50391C19.0059 6.17285 16.8037 4.67969 14.0215 4.67969C10.4551 4.67969 7.44727 7.41895 7.125 11.0068C5.25586 11.5439 4.06348 13.123 4.06348 15.0566C4.06348 17.5273 5.90039 19.2139 8.58594 19.2139Z" fill="white"/>
<path d="M27.3311 13.4668L26.3319 13.5084L26.3804 14.673L27.5241 14.448L27.3311 13.4668ZM29.2539 8.21387L29.2539 7.21386L29.2498 7.21388L29.2539 8.21387ZM25.0859 0.608398L25.0609 -0.39138L25.0475 -0.390863L25.0859 0.608398ZM19.9297 5.78613L18.9504 5.58377L18.8373 6.13121L19.2443 6.51433L19.9297 5.78613ZM20.918 7.17188L20.0139 7.59925L20.2642 8.12873L20.8484 8.16945L20.918 7.17188ZM20.2305 8.50391L19.3452 8.96898L19.6252 9.50192L20.2272 9.5039L20.2305 8.50391ZM7.125 11.0068L7.40118 11.9679L8.0597 11.7787L8.12099 11.0963L7.125 11.0068ZM27.5241 14.448C29.413 14.0763 30.9275 13.1152 31.973 11.9835C32.9962 10.8761 33.6484 9.51451 33.6484 8.28906H31.6484C31.6484 8.85756 31.307 9.75723 30.504 10.6263C29.7234 11.4712 28.5792 12.202 27.138 12.4856L27.5241 14.448ZM33.6484 8.28906C33.6484 7.94024 33.5744 7.52984 33.3278 7.17613C33.0542 6.78357 32.6153 6.53711 32.1006 6.53711V8.53711C32.0387 8.53711 31.9543 8.52235 31.8668 8.47592C31.7804 8.43005 31.7219 8.36969 31.687 8.31972C31.6258 8.23188 31.6484 8.19745 31.6484 8.28906H33.6484ZM32.1006 6.53711C31.7786 6.53711 31.4875 6.63309 31.2954 6.70269C31.1909 6.74059 31.0829 6.78354 30.9863 6.82196C30.8852 6.86215 30.789 6.90036 30.6874 6.93814C30.2961 7.08358 29.845 7.21387 29.2539 7.21387V9.21387C30.1667 9.21387 30.8651 9.00578 31.3842 8.81284C31.5101 8.76602 31.6266 8.71964 31.725 8.68052C31.8279 8.63963 31.9064 8.60856 31.9769 8.58301C32.135 8.52572 32.1486 8.53711 32.1006 8.53711V6.53711ZM29.2498 7.21388C28.1533 7.21841 27.3597 6.89025 26.8483 6.40884C26.342 5.93224 26.0215 5.2209 26.0215 4.27148H24.0215C24.0215 5.69609 24.5174 6.96131 25.4774 7.86508C26.4323 8.76405 27.7549 9.22007 29.258 9.21386L29.2498 7.21388ZM26.0215 4.27148C26.0215 3.70792 26.1615 3.2045 26.3302 2.72449C26.3984 2.53043 26.5208 2.20847 26.5861 2.01327C26.6577 1.79952 26.752 1.48974 26.752 1.16699H24.752C24.752 1.13966 24.7549 1.18302 24.6895 1.37848C24.6179 1.5925 24.5577 1.73581 24.4433 2.0614C24.2467 2.6207 24.0215 3.37411 24.0215 4.27148H26.0215ZM26.752 1.16699C26.752 0.755757 26.6026 0.318525 26.236 -3.81961e-05C25.8832 -0.30665 25.4474 -0.400952 25.0609 -0.391289L25.1109 1.60809C25.1541 1.60701 25.0513 1.62013 24.9241 1.50956C24.7831 1.38704 24.752 1.23448 24.752 1.16699H26.752ZM25.0475 -0.390863C23.7476 -0.340867 22.3895 0.384567 21.3114 1.40884C20.2151 2.45048 19.2979 3.9018 18.9504 5.58377L20.909 5.9885C21.163 4.75934 21.8464 3.65939 22.689 2.85874C23.55 2.04073 24.4692 1.63286 25.1244 1.60766L25.0475 -0.390863ZM19.2443 6.51433C19.5173 6.77122 19.7873 7.11998 20.0139 7.59925L21.822 6.7445C21.49 6.04213 21.0726 5.48855 20.6151 5.05793L19.2443 6.51433ZM20.8484 8.16945C23.9255 8.38392 26.2151 10.7051 26.3319 13.5084L28.3302 13.4252C28.1677 9.52542 25.0003 6.45397 20.9875 6.1743L20.8484 8.16945ZM8.58594 20.2139H20.499V18.2139H8.58594V20.2139ZM20.499 20.2139C24.1131 20.2139 26.9346 17.4348 26.9346 13.8428H24.9346C24.9346 16.3094 23.0295 18.2139 20.499 18.2139V20.2139ZM26.9346 13.8428C26.9346 10.1762 23.9833 7.51625 20.2338 7.50391L20.2272 9.5039C23.0089 9.51305 24.9346 11.4078 24.9346 13.8428H26.9346ZM21.1157 8.03883C19.7332 5.40719 17.2062 3.67969 14.0215 3.67969V5.67969C16.4012 5.67969 18.2785 6.93851 19.3452 8.96898L21.1157 8.03883ZM14.0215 3.67969C9.93628 3.67969 6.49748 6.81512 6.12901 10.9174L8.12099 11.0963C8.39706 8.02278 10.9739 5.67969 14.0215 5.67969V3.67969ZM6.84882 10.0457C4.55378 10.7052 3.06348 12.6744 3.06348 15.0566H5.06348C5.06348 13.5717 5.95794 12.3827 7.40118 11.9679L6.84882 10.0457ZM3.06348 15.0566C3.06348 16.5525 3.62616 17.8655 4.641 18.7981C5.64892 19.7243 7.03408 20.2139 8.58594 20.2139V18.2139C7.45225 18.2139 6.57618 17.8602 5.99425 17.3254C5.41925 16.7971 5.06348 16.0315 5.06348 15.0566H3.06348Z" fill="black" mask="url(#path-1-outside-1_105_50)"/>
</g>
<defs>
<filter id="filter0_d_105_50" x="0.0634766" y="0.597656" width="36.585" height="26.6162" filterUnits="userSpaceOnUse" color-interpolation-filters="sRGB">
<feFlood flood-opacity="0" result="BackgroundImageFix"/>
<feColorMatrix in="SourceAlpha" type="matrix" values="0 0 0 0 0 0 0 0 0 0 0 0 0 0 0 0 0 0 127 0" result="hardAlpha"/>
<feOffset dy="4"/>
<feGaussianBlur stdDeviation="2"/>
<feComposite in2="hardAlpha" operator="out"/>
<feColorMatrix type="matrix" values="0 0 0 0 0 0 0 0 0 0 0 0 0 0 0 0 0 0 0.25 0"/>
<feBlend mode="normal" in2="BackgroundImageFix" result="effect1_dropShadow_105_50"/>
<feBlend mode="normal" in="SourceGraphic" in2="effect1_dropShadow_105_50" result="shape"/>
</filter>
</defs>
</svg>
